<mxfile host="65bd71144e">
    <diagram id="ykNCEG1GfwQtkY8QHGU9" name="Page-1">
        <mxGraphModel dx="746" dy="415" grid="1" gridSize="10" guides="1" tooltips="1" connect="1" arrows="1" fold="1" page="1" pageScale="1" pageWidth="850" pageHeight="1100" math="0" shadow="0">
            <root>
                <mxCell id="0"/>
                <mxCell id="1" parent="0"/>
                <mxCell id="2" value="Entrada" style="ellipse;whiteSpace=wrap;html=1;aspect=fixed;" parent="1" vertex="1">
                    <mxGeometry x="140" y="235" width="80" height="80" as="geometry"/>
                </mxCell>
                <mxCell id="3" value="Entrada F°" style="ellipse;whiteSpace=wrap;html=1;aspect=fixed;" parent="1" vertex="1">
                    <mxGeometry x="140" y="410" width="80" height="80" as="geometry"/>
                </mxCell>
                <mxCell id="4" value="Entrada C°" style="ellipse;whiteSpace=wrap;html=1;aspect=fixed;" parent="1" vertex="1">
                    <mxGeometry x="140" y="320" width="81" height="80" as="geometry"/>
                </mxCell>
                <mxCell id="5" value="Salida" style="ellipse;whiteSpace=wrap;html=1;aspect=fixed;" parent="1" vertex="1">
                    <mxGeometry x="362" y="240" width="81" height="80" as="geometry"/>
                </mxCell>
                <mxCell id="6" value="" style="endArrow=classic;html=1;" parent="1" edge="1">
                    <mxGeometry width="50" height="50" relative="1" as="geometry">
                        <mxPoint x="250" y="279.5" as="sourcePoint"/>
                        <mxPoint x="330" y="279.5" as="targetPoint"/>
                    </mxGeometry>
                </mxCell>
                <mxCell id="7" value="Salida" style="ellipse;whiteSpace=wrap;html=1;aspect=fixed;" parent="1" vertex="1">
                    <mxGeometry x="355" y="376" width="81" height="80" as="geometry"/>
                </mxCell>
                <mxCell id="8" value="" style="endArrow=classic;html=1;" parent="1" edge="1">
                    <mxGeometry width="50" height="50" relative="1" as="geometry">
                        <mxPoint x="230" y="450" as="sourcePoint"/>
                        <mxPoint x="350" y="430" as="targetPoint"/>
                    </mxGeometry>
                </mxCell>
                <mxCell id="9" value="" style="endArrow=classic;html=1;" parent="1" edge="1">
                    <mxGeometry width="50" height="50" relative="1" as="geometry">
                        <mxPoint x="230" y="360" as="sourcePoint"/>
                        <mxPoint x="350" y="400" as="targetPoint"/>
                    </mxGeometry>
                </mxCell>
                <mxCell id="10" value="Entrada´ F°" style="ellipse;whiteSpace=wrap;html=1;aspect=fixed;" vertex="1" parent="1">
                    <mxGeometry x="560" y="410" width="80" height="80" as="geometry"/>
                </mxCell>
                <mxCell id="11" value="Entrada´C°" style="ellipse;whiteSpace=wrap;html=1;aspect=fixed;" vertex="1" parent="1">
                    <mxGeometry x="560" y="320" width="81" height="80" as="geometry"/>
                </mxCell>
                <mxCell id="12" value="Salida" style="ellipse;whiteSpace=wrap;html=1;aspect=fixed;" vertex="1" parent="1">
                    <mxGeometry x="775" y="376" width="81" height="80" as="geometry"/>
                </mxCell>
                <mxCell id="13" value="" style="endArrow=classic;html=1;" edge="1" parent="1">
                    <mxGeometry width="50" height="50" relative="1" as="geometry">
                        <mxPoint x="650" y="450" as="sourcePoint"/>
                        <mxPoint x="770" y="430" as="targetPoint"/>
                    </mxGeometry>
                </mxCell>
                <mxCell id="14" value="" style="endArrow=classic;html=1;" edge="1" parent="1">
                    <mxGeometry width="50" height="50" relative="1" as="geometry">
                        <mxPoint x="650" y="360" as="sourcePoint"/>
                        <mxPoint x="770" y="400" as="targetPoint"/>
                    </mxGeometry>
                </mxCell>
                <mxCell id="15" value="" style="endArrow=classic;html=1;" edge="1" parent="1">
                    <mxGeometry width="50" height="50" relative="1" as="geometry">
                        <mxPoint x="442" y="389" as="sourcePoint"/>
                        <mxPoint x="546" y="364" as="targetPoint"/>
                    </mxGeometry>
                </mxCell>
                <mxCell id="16" value="" style="endArrow=classic;html=1;" edge="1" parent="1">
                    <mxGeometry width="50" height="50" relative="1" as="geometry">
                        <mxPoint x="443" y="420" as="sourcePoint"/>
                        <mxPoint x="550" y="450" as="targetPoint"/>
                    </mxGeometry>
                </mxCell>
            </root>
        </mxGraphModel>
    </diagram>
</mxfile>